<svg xmlns="http://www.w3.org/2000/svg"  viewBox="0 0 64 64" width="128px" height="128px"><linearGradient id="Mmczf6Anss_1MdJukMtC8a" x1="20.5" x2="20.5" y1="25" y2="41" gradientUnits="userSpaceOnUse" spreadMethod="reflect"><stop offset="0" stop-color="#6dc7ff"/><stop offset="1" stop-color="#e6abff"/></linearGradient><path fill="url(#Mmczf6Anss_1MdJukMtC8a)" d="M20.877,32.229C19.15,31.534,17,30.669,17,29.632C17,28.844,17,27,21,27 c1.078,0,2.499,0.334,3.388,0.62l0.057,0.018l0.058,0.015L25,27.781v-2.065C24.476,25.547,22.627,25,21,25c-3,0-6,1-6,4.632 C15,34,24,34,24,37c0,2-3.563,2-4,2c-2.452,0-4.389-1.495-5-2v2.455C16.238,40.23,17.971,41,20,41c4.424,0,6-2.066,6-4 C26,34.289,23.278,33.194,20.877,32.229z"/><linearGradient id="Mmczf6Anss_1MdJukMtC8b" x1="32.5" x2="32.5" y1="4.75" y2="60.299" gradientUnits="userSpaceOnUse" spreadMethod="reflect"><stop offset="0" stop-color="#1a6dff"/><stop offset="1" stop-color="#c822ff"/></linearGradient><path fill="url(#Mmczf6Anss_1MdJukMtC8b)" d="M51,27c-0.121,0-0.239,0.011-0.358,0.018c-1.383-2.911-3.766-5.29-6.679-6.669 C43.638,17.346,41.089,15,38,15c-1.538,0-2.937,0.586-4,1.54V14v-2V9.975c0-0.938-0.432-1.801-1.185-2.367 c-0.763-0.575-1.73-0.755-2.651-0.488l-18.561,5.342C9.482,13.072,8,15.025,8,17.211v31.578c0,2.187,1.482,4.14,3.603,4.75 l18.561,5.342c0.28,0.081,0.564,0.12,0.845,0.12c0.645,0,1.274-0.208,1.806-0.608C33.568,57.827,34,56.963,34,56.026V54v-2v-1.54 c1.063,0.954,2.462,1.54,4,1.54c3.309,0,6-2.691,6-6c0-0.121-0.011-0.239-0.018-0.358c2.905-1.381,5.28-3.756,6.66-6.66 C50.761,38.989,50.879,39,51,39c3.309,0,6-2.691,6-6S54.309,27,51,27z M38,17c2.206,0,4,1.794,4,4s-1.794,4-4,4s-4-1.794-4-4 S35.794,17,38,17z M32,54v2.026c0,0.304-0.142,0.584-0.388,0.77c-0.257,0.193-0.583,0.253-0.896,0.164l-18.56-5.342 C10.887,51.252,10,50.089,10,48.789V17.211c0-1.3,0.887-2.463,2.156-2.828l18.56-5.342c0.312-0.09,0.638-0.03,0.896,0.164 C31.858,9.391,32,9.671,32,9.975V12V54z M38,50c-2.206,0-4-1.794-4-4s1.794-4,4-4s4,1.794,4,4S40.206,50,38,50z M43.519,43.649 C42.603,41.506,40.475,40,38,40c-1.538,0-2.937,0.586-4,1.54V25.46c1.063,0.954,2.462,1.54,4,1.54c2.789,0,5.133-1.916,5.802-4.498 c2.059,1.144,3.758,2.889,4.847,4.979C46.506,28.397,45,30.525,45,33c0,2.475,1.506,4.603,3.649,5.519 C47.511,40.704,45.705,42.51,43.519,43.649z M51,37c-2.206,0-4-1.794-4-4s1.794-4,4-4s4,1.794,4,4S53.206,37,51,37z"/><linearGradient id="Mmczf6Anss_1MdJukMtC8c" x1="37" x2="37" y1="19" y2="23" gradientUnits="userSpaceOnUse" spreadMethod="reflect"><stop offset="0" stop-color="#6dc7ff"/><stop offset="1" stop-color="#e6abff"/></linearGradient><path fill="url(#Mmczf6Anss_1MdJukMtC8c)" d="M36,21c0-1.105,0.895-2,2-2v4C36.895,23,36,22.105,36,21z"/><linearGradient id="Mmczf6Anss_1MdJukMtC8d" x1="50" x2="50" y1="31" y2="35" gradientUnits="userSpaceOnUse" spreadMethod="reflect"><stop offset="0" stop-color="#6dc7ff"/><stop offset="1" stop-color="#e6abff"/></linearGradient><path fill="url(#Mmczf6Anss_1MdJukMtC8d)" d="M49,33c0-1.105,0.895-2,2-2v4C49.895,35,49,34.105,49,33z"/><linearGradient id="Mmczf6Anss_1MdJukMtC8e" x1="37" x2="37" y1="44" y2="48" gradientUnits="userSpaceOnUse" spreadMethod="reflect"><stop offset="0" stop-color="#6dc7ff"/><stop offset="1" stop-color="#e6abff"/></linearGradient><path fill="url(#Mmczf6Anss_1MdJukMtC8e)" d="M36,46c0-1.105,0.895-2,2-2v4C36.895,48,36,47.105,36,46z"/></svg>